<svg width="133" height="18" viewBox="0 0 133 18" fill="none" xmlns="http://www.w3.org/2000/svg">
<path d="M2.192 16.296H2.18V2.892H5.672L9.92 16.296H13.376V2.892H13.388V16.296H9.92L5.672 2.892H2.192V16.296ZM0.5 18V1.2H7.016L11.168 14.556H11.684V1.2H15.08V18H8.564L4.388 4.608H3.896V18H0.5ZM20.6221 3.156V-1.43051e-06H24.4861V3.156H20.6221ZM22.5661 1.776H22.5541V1.2H22.5661V1.776ZM17.8981 18V14.604H21.1021V8.436H17.8981V5.04H24.4861V14.604H27.6901V18H17.8981ZM19.4101 16.296H26.1901H22.7341V6.732H19.4101H22.7341V16.296H19.4101ZM29.7266 18V1.2H33.1226V9.864H35.5706L36.9986 8.436V5.04H40.3946V9.864L38.7026 11.544L40.3946 13.26V18H36.9986V14.676L35.5706 13.26H33.1226V18H29.7266ZM31.4426 16.296H31.4306V11.532H36.4226L38.6666 13.872V16.296H38.6546V13.872L36.4226 11.532L38.6666 9.288V6.72H38.6786V9.288L36.4226 11.532H31.4306V2.892H31.4426V16.296ZM43.3306 18V14.604H50.8906L51.6226 13.872V13.932L50.9146 13.212H45.6826L43.2106 10.74V7.512L45.6826 5.04H54.7666V8.436H47.3266L46.5946 9.168V9.096L47.3266 9.828H52.5346L55.0066 12.3V15.528L52.5346 18H43.3306ZM45.1786 16.26H51.8266L53.3146 14.772V12.888L51.8266 11.46H46.2826L44.9266 10.092V8.208L46.4026 6.732H52.9186H46.4026L44.9266 8.208V10.092L46.2826 11.46H51.8266L53.3146 12.888V14.772L51.8266 16.26H45.1786ZM57.8281 18V1.2H64.4641L66.4921 13.116H67.0681L69.0961 1.2H75.7201V18H72.3241V4.608H71.8561L69.7921 16.56H63.7681L61.7161 4.608H61.2241V18H57.8281ZM59.5081 16.296H59.4961V2.892H63.0001L65.2081 14.676H68.3281L70.5361 2.892H74.0161V16.296H74.0041V2.892H70.5361L68.3281 14.676H65.2081L63.0001 2.892H59.5081V16.296ZM88.4549 5.04L90.9269 7.512V10.932L88.4549 13.404H81.9269V13.872L82.6589 14.604H90.7589V18H81.0029L78.5309 15.528V7.512L81.0029 5.04H88.4549ZM87.5789 6.696L89.1149 8.208V10.44L87.8429 11.712H80.1989V8.328L81.8549 6.696H87.5789ZM87.5789 6.696H81.8549L80.1989 8.328V14.712L81.7589 16.248H89.2589H81.7589L80.1989 14.712V11.712H87.8429L89.1149 10.44V8.208L87.5789 6.696ZM86.7989 8.436H82.6589L81.9269 9.168V10.128H87.0389L87.5429 9.624V9.168L86.7989 8.436ZM95.7858 18V8.424H92.7978V5.04H95.7858V1.752H99.1818V5.04H102.158V8.424H99.1818V14.604H102.074V18H95.7858ZM97.4898 16.284H100.586V16.296H97.4898V6.696H100.646V6.708H97.4898V3.252V6.696H94.3218V6.684H97.4898V16.284ZM114.728 5.04L117.2 7.512V10.932L114.728 13.404H108.2V13.872L108.932 14.604H117.032V18H107.276L104.804 15.528V7.512L107.276 5.04H114.728ZM113.852 6.696L115.388 8.208V10.44L114.116 11.712H106.472V8.328L108.128 6.696H113.852ZM113.852 6.696H108.128L106.472 8.328V14.712L108.032 16.248H115.532H108.032L106.472 14.712V11.712H114.116L115.388 10.44V8.208L113.852 6.696ZM113.072 8.436H108.932L108.2 9.168V10.128H113.312L113.816 9.624V9.168L113.072 8.436ZM122.323 18L119.851 15.528V7.512L122.323 5.04H129.823L132.295 7.512V15.528L129.823 18H122.323ZM123.283 16.296H129.007L130.579 14.616V8.328L129.007 6.72H123.187L121.591 8.328V14.616L123.283 16.296ZM123.283 16.296L121.591 14.616V8.328L123.187 6.72H129.007L130.579 8.328V14.616L129.007 16.296H123.283ZM123.979 14.604H128.167L128.899 13.872V9.168L128.167 8.436H123.979L123.247 9.168V13.872L123.979 14.604Z" fill="white"/>
</svg>
