<svg width="135" height="19" viewBox="0 0 135 19" fill="none" xmlns="http://www.w3.org/2000/svg">
<path d="M2.732 18L0.26 15.528V3.672L2.732 1.2H10.184L12.668 3.672V7.536H9.272V5.328L8.54 4.596H4.388L3.656 5.328V13.872L4.388 14.604H8.54L9.272 13.872V11.664H12.668V15.528L10.184 18H2.732ZM3.608 16.296H9.344L10.952 14.688V13.248V14.688L9.344 16.296H3.608L1.94 14.628V4.452L3.608 2.784H9.272L10.952 4.452V5.904V4.452L9.272 2.784H3.608L1.94 4.452V14.628L3.608 16.296ZM17.7217 18L15.2497 15.528V12.108L17.7217 9.636H24.2497V9.168L23.5177 8.436H15.4177V5.04H25.1737L27.6457 7.512V15.528L25.1737 18H17.7217ZM18.5977 16.344L17.0617 14.832V12.6L18.3337 11.328H25.9777V14.712L24.3217 16.344H18.5977ZM18.5977 16.344H24.3217L25.9777 14.712V8.328L24.4177 6.792H16.9177H24.4177L25.9777 8.328V11.328H18.3337L17.0617 12.6V14.832L18.5977 16.344ZM19.3777 14.604H23.5177L24.2497 13.872V12.912H19.1377L18.6337 13.416V13.872L19.3777 14.604ZM30.4766 1.2H33.8726V14.592H34.4006L36.3926 2.64H42.4166L44.4206 14.592H44.9366V1.2H48.3326V18H41.6606L39.6926 6.084H39.1166L37.1486 18H30.4766V1.2ZM32.1566 2.904V16.308H35.6846L37.8326 4.524H40.9526L43.1006 16.308H46.6166V2.904H46.6286V16.308H43.1006L40.9526 4.524H37.8326L35.6846 16.308H32.1446V2.904H32.1566ZM61.0799 5.04L63.5519 7.512V10.932L61.0799 13.404H54.5519V13.872L55.2839 14.604H63.3839V18H53.6279L51.1559 15.528V7.512L53.6279 5.04H61.0799ZM60.2039 6.696L61.7399 8.208V10.44L60.4679 11.712H52.8239V8.328L54.4799 6.696H60.2039ZM60.2039 6.696H54.4799L52.8239 8.328V14.712L54.3839 16.248H61.8839H54.3839L52.8239 14.712V11.712H60.4679L61.7399 10.44V8.208L60.2039 6.696ZM59.4239 8.436H55.2839L54.5519 9.168V10.128H59.6639L60.1679 9.624V9.168L59.4239 8.436ZM68.6748 18L66.2028 15.528V12.108L68.6748 9.636H75.2028V9.168L74.4708 8.436H66.3708V5.04H76.1268L78.5988 7.512V15.528L76.1268 18H68.6748ZM69.5508 16.344L68.0148 14.832V12.6L69.2868 11.328H76.9308V14.712L75.2748 16.344H69.5508ZM69.5508 16.344H75.2748L76.9308 14.712V8.328L75.3708 6.792H67.8708H75.3708L76.9308 8.328V11.328H69.2868L68.0148 12.6V14.832L69.5508 16.344ZM70.3308 14.604H74.4708L75.2028 13.872V12.912H70.0908L69.5868 13.416V13.872L70.3308 14.604ZM83.4577 18V8.424H80.4697V5.04H83.4577V1.752H86.8537V5.04H89.8297V8.424H86.8537V14.604H89.7457V18H83.4577ZM85.1617 16.284H88.2577V16.296H85.1617V6.696H88.3177V6.708H85.1617V3.252V6.696H81.9937V6.684H85.1617V16.284ZM92.6562 18V0.0119991H96.0523V5.268L96.2803 5.04H101.884L104.356 7.512V18H100.96V9.168L100.228 8.424H97.0123L96.0523 9.396V18H92.6562ZM94.4203 16.296H94.4083V8.76L96.4843 6.708H101.2L102.664 8.148V16.296H102.652V8.148L101.2 6.708H96.4843L94.4083 8.76V1.848H94.4203V16.296ZM116.932 5.04L119.404 7.512V10.932L116.932 13.404H110.404V13.872L111.136 14.604H119.236V18H109.48L107.008 15.528V7.512L109.48 5.04H116.932ZM116.056 6.696L117.592 8.208V10.44L116.32 11.712H108.676V8.328L110.332 6.696H116.056ZM116.056 6.696H110.332L108.676 8.328V14.712L110.236 16.248H117.736H110.236L108.676 14.712V11.712H116.32L117.592 10.44V8.208L116.056 6.696ZM115.276 8.436H111.136L110.404 9.168V10.128H115.516L116.02 9.624V9.168L115.276 8.436ZM122.054 18.012V14.616H124.382V8.604L124.202 8.424H122.078V5.04H125.114L125.93 6L126.854 5.04H131.522L134.15 7.668L131.534 10.212L129.878 8.436H128.51L127.778 9.168V14.628H130.106V18.012H122.054ZM123.59 16.296H128.57H126.062V8.208L127.562 6.72H130.802L131.882 7.92L130.802 6.72H127.562L126.062 8.208L124.67 6.72H123.59H124.67L126.074 8.208V16.296H123.59Z" fill="white"/>
</svg>
